<?xml version="1.0" encoding="UTF-8"?>
<svg width="1440px" height="1440px" viewBox="0 0 1440 1440" version="1.1" xmlns="http://www.w3.org/2000/svg" xmlns:xlink="http://www.w3.org/1999/xlink">
    <title>Group 4</title>
    <defs>
        <rect id="path-1" x="0" y="0" width="1440" height="1024"></rect>
        <path d="M720.627682,-75 C646.478811,-75 583.418744,-54.2565571 531.984156,-2.82196878 L529.404411,-0.21273535 C479.214395,51.1382696 461.032296,104.827668 449.219503,197.958696 L421.47553,424.007558 L352.794662,424.007558 L337,544.046993 L406.285257,544.039106 L338.852107,1098.49984 L462.353521,1098.49984 L529.779178,544.039106 L737.570134,544.046993 L753.364796,424.007558 L544.993111,424.007558 L570.619602,215.138502 L570.937692,212.401839 C578.245375,149.771255 590.230496,108.529689 615.962895,81.8442375 C638.498363,59.3161422 672.948679,45.0394348 719.129161,45.0394348 C760.081991,45.0394348 792.824413,56.5955835 811.491122,74.0178461 C831.302391,92.9313467 838.931987,118.817476 838.931987,151.35557 L838.895149,154.391384 C838.759995,160.267431 838.252529,167.895575 837.365698,178.017864 L834.853236,205.098156 L834.594163,208.046993 L725.436254,1098.49984 L727.079211,1098.49984 L726.915799,1099.91148 C724.881393,1117.33879 724.019073,1131.47148 724.019073,1149.13408 C724.019073,1211.68662 739.199364,1261.33027 783.520821,1302.59508 C827.900084,1343.68715 895.919819,1365 966.858376,1365 C1041.00725,1365 1104.06731,1344.25656 1155.5019,1292.82197 L1158.08165,1290.21274 C1208.27166,1238.86173 1226.45376,1185.17233 1238.26656,1092.0413 L1266.00264,865.992442 L1334.6914,865.992442 L1350.48606,745.953007 L1281.19291,745.953007 L1348.63395,191.500164 L1225.13254,191.500164 L1157.69899,745.953007 L949.915924,745.953007 L934.121262,865.992442 L1142.48506,865.992442 L1116.86646,1074.8615 L1116.54837,1077.59816 C1109.24068,1140.22874 1097.25556,1181.47031 1071.52316,1208.15576 C1048.9877,1230.68386 1014.53738,1244.96057 968.356897,1244.96057 C927.404067,1244.96057 894.661646,1233.40442 875.994936,1215.98215 C856.183667,1197.06865 848.554071,1171.18252 848.554071,1138.64443 L848.59091,1135.60862 C848.726063,1129.73257 849.23353,1122.10442 850.12036,1111.98214 L852.632822,1084.90184 L852.884008,1081.94512 L962.031861,191.646537 L960.3753,191.634243 L960.570259,190.08852 C962.604666,172.661206 963.466986,158.528518 963.466986,140.865922 C963.466986,78.3133823 948.286695,28.6697276 903.965237,-12.5950777 C859.585974,-53.6871496 791.566239,-75 720.627682,-75 Z" id="path-3"></path>
    </defs>
    <g id="Page-1" stroke="none" stroke-width="1" fill="none" fill-rule="evenodd">
        <g id="Home---Geometric-Copy-4" transform="translate(0.000000, 75.000000)">
            <g id="Group-4">
                <mask id="mask-2" fill="white">
                    <use xlink:href="#path-1"></use>
                </mask>
                <g id="Rectangle"></g>
                <mask id="mask-4" fill="white">
                    <use xlink:href="#path-3"></use>
                </mask>
                <use id="Combined-Shape-Copy-3" fill="#244A5D" fill-rule="nonzero" opacity="0.0799999982" xlink:href="#path-3"></use>
            </g>
        </g>
    </g>
</svg>