<?xml version="1.0" encoding="UTF-8"?>
<svg width="43px" height="60px" viewBox="0 0 43 60" version="1.1" xmlns="http://www.w3.org/2000/svg" xmlns:xlink="http://www.w3.org/1999/xlink">
    <title>Combined Shape Copy 2</title>
    <g id="Page-1" stroke="none" stroke-width="1" fill="none" fill-rule="evenodd">
        <g id="Home---Geometric-Copy-4" transform="translate(-44.000000, -36.000000)" fill="#244A5D" fill-rule="nonzero">
            <path d="M59.9844868,36 C56.8949505,36 54.2674477,36.8643101 52.1243398,39.007418 L52.0168505,39.116136 C49.9255998,41.2557612 49.1680123,43.4928195 48.6758126,47.373279 L47.5198138,56.7919816 L44.6581109,56.7919816 L44,61.7936247 L46.8868857,61.7932961 L44.0771711,84.8958265 L49.2230634,84.8958265 L52.0324657,61.7932961 L60.6904222,61.7936247 L61.3485332,56.7919816 L52.6663796,56.7919816 L53.7341501,48.0891043 L53.7474038,47.9750766 C54.0518906,45.365469 54.5512707,43.6470704 55.623454,42.5351766 C56.5624318,41.5965059 57.9978616,41.0016431 59.9220484,41.0016431 C61.6284163,41.0016431 62.9926839,41.4831493 63.7704634,42.2090769 C64.595933,42.9971394 64.9138328,44.0757282 64.9138328,45.4314821 L64.9122979,45.5579744 C64.9066665,45.8028096 64.885522,46.120649 64.8485708,46.542411 L64.7438848,47.6707565 L64.7330901,47.7936247 L60.1848439,84.8958265 L60.2533004,84.8958265 L60.2464916,84.954645 C60.1617247,85.6807831 60.1257947,86.2696451 60.1257947,87.0055866 C60.1257947,89.6119424 60.7583068,91.680428 62.6050342,93.3997949 C64.4541702,95.1119646 67.2883258,96 70.244099,96 C73.3336353,96 75.9611381,95.1356899 78.1042459,92.992582 L78.2117353,92.883864 C80.302986,90.7442388 81.0605734,88.5071805 81.5527732,84.626721 L82.7084434,75.2080184 L85.5704748,75.2080184 L86.2285858,70.2063753 L83.3413714,70.2063753 L86.1514146,47.1041735 L81.0055224,47.1041735 L78.1957914,70.2063753 L69.5381635,70.2063753 L68.8800526,75.2080184 L77.5618775,75.2080184 L76.4944357,83.9108957 L76.4811819,84.0249234 C76.1766951,86.634531 75.6773151,88.3529296 74.6051318,89.4648234 C73.666154,90.4034941 72.2307241,90.9983569 70.3065374,90.9983569 C68.6001695,90.9983569 67.2359019,90.5168507 66.4581223,89.7909231 C65.6326528,89.0028606 65.314753,87.9242718 65.314753,86.5685179 L65.3162879,86.4420256 C65.3219193,86.1971904 65.3430637,85.879351 65.380015,85.457589 L65.4847009,84.3292435 L65.495167,84.2060467 L70.0429942,47.1102724 L69.9739708,47.1097601 L69.9820941,47.045355 C70.0668611,46.3192169 70.1027911,45.7303549 70.1027911,44.9944134 C70.1027911,42.3880576 69.4702789,40.319572 67.6235515,38.6002051 C65.7744156,36.8880354 62.94026,36 59.9844868,36 Z" id="Combined-Shape-Copy-2"></path>
        </g>
    </g>
</svg>